<?xml version="1.0" standalone="no"?>
<!DOCTYPE svg PUBLIC "-//W3C//DTD SVG 20010904//EN"
 "http://www.w3.org/TR/2001/REC-SVG-20010904/DTD/svg10.dtd">
<svg version="1.0" xmlns="http://www.w3.org/2000/svg"
 width="791.000000pt" height="791.000000pt" viewBox="0 0 791.000000 791.000000"
 preserveAspectRatio="xMidYMid meet">
    <style type="text/css">
        .st0{fill:#717171;}
    </style>
<g transform="translate(0.000000,791.000000) scale(0.100000,-0.100000)"
fill="#000000" stroke="none">
<path class="st0" d="M3720 7904 c-486 -42 -829 -118 -1215 -271 -284 -113 -475 -213 -740
-389 -738 -489 -1284 -1203 -1560 -2039 -54 -163 -71 -225 -61 -214 3 3 20 52
37 110 26 85 80 207 182 407 7 12 17 20 23 18 17 -6 33 29 32 72 0 31 8 52 31
84 19 26 31 35 31 25 0 -26 29 -20 40 8 5 14 17 28 25 31 8 4 15 16 15 29 0
12 7 28 15 35 8 7 15 20 15 30 0 9 9 29 20 43 11 14 23 46 26 71 4 26 11 49
15 52 5 3 9 14 9 24 0 10 6 23 13 27 7 4 18 21 25 36 7 15 16 25 22 22 12 -7
30 27 30 57 0 14 22 52 52 89 65 80 70 87 85 104 7 7 13 17 13 22 1 12 61 76
67 70 2 -3 -5 -15 -16 -26 -43 -43 -19 -46 27 -3 26 25 46 49 44 54 -1 5 2 7
7 4 5 -4 26 13 45 36 20 23 53 55 72 72 30 24 39 27 55 18 15 -10 20 -8 29 7
7 14 6 21 -3 25 -6 3 -1 3 12 0 22 -6 23 -4 17 22 -13 54 -11 59 21 74 18 8
36 24 39 34 4 11 16 28 28 37 11 10 18 21 13 25 -4 4 -14 -1 -21 -12 -8 -10
-18 -16 -22 -11 -10 10 86 96 109 97 9 0 17 5 17 10 0 6 15 24 32 40 24 22 39
28 57 24 19 -4 22 -2 17 12 -4 12 -2 15 9 10 19 -7 65 13 65 29 0 7 13 15 30
18 16 4 48 25 71 47 23 22 45 40 49 40 5 0 22 11 38 24 21 19 37 24 63 21 39
-5 91 14 85 32 -7 16 28 45 47 38 8 -4 17 -15 20 -26 7 -25 47 -25 54 0 5 18
41 41 66 41 7 0 18 4 26 9 12 8 12 12 2 25 -14 16 -6 40 10 31 13 -9 11 19 -3
33 -10 10 -8 14 10 19 15 4 21 11 18 20 -4 9 1 17 14 20 11 3 18 9 15 13 -6
10 30 29 130 72 340 145 595 222 782 234 49 3 93 9 98 13 29 22 255 -15 255
-41 0 -5 -6 -8 -13 -6 -7 2 -13 -1 -14 -7 0 -5 4 -9 9 -7 6 1 16 -3 24 -9 11
-9 14 -8 15 7 0 11 3 13 6 7 2 -7 -3 -27 -12 -45 -15 -32 -15 -34 5 -50 20
-16 20 -18 3 -36 -10 -10 -22 -26 -28 -35 -5 -10 -23 -18 -39 -19 -19 -2 -32
-10 -39 -26 -10 -22 -15 -24 -62 -17 -27 3 -93 8 -145 10 -52 3 -118 7 -147
10 -35 3 -53 1 -55 -7 -2 -6 -21 -16 -42 -22 -21 -6 -37 -15 -35 -19 5 -10
-43 -37 -53 -31 -5 3 -8 -4 -8 -15 0 -25 -4 -27 -62 -35 -41 -6 -49 -4 -62 16
-15 21 -14 23 10 33 25 10 25 10 -21 24 -51 15 -65 10 -47 -19 16 -25 15 -30
-3 -30 -8 0 -19 9 -25 20 -11 20 -11 20 -37 -4 -25 -24 -33 -28 -105 -59 -21
-9 -38 -21 -38 -27 0 -5 -6 -10 -14 -10 -8 0 -16 -6 -19 -14 -4 -10 -20 -14
-51 -13 -43 2 -74 -11 -48 -20 7 -3 18 -10 24 -17 7 -8 32 -11 67 -8 46 3 60
0 78 -17 14 -13 38 -22 62 -24 22 -1 43 -6 47 -10 4 -4 20 -7 36 -7 21 0 31
-6 38 -26 9 -24 13 -25 53 -19 23 4 44 11 47 15 8 12 81 -1 87 -16 7 -19 23
-18 38 3 11 15 17 15 39 5 15 -7 36 -12 46 -12 24 0 70 -21 70 -32 0 -4 -21
-8 -47 -9 -27 -1 -59 -4 -73 -9 -52 -15 9 -23 88 -10 68 10 87 10 145 -5 49
-12 75 -14 95 -7 18 6 64 6 126 1 62 -6 111 -6 134 1 21 5 50 6 67 1 l30 -8
-25 -14 c-14 -7 -43 -21 -65 -29 -25 -10 -45 -26 -53 -43 -16 -32 -86 -67
-134 -66 -31 0 -32 1 -10 11 26 13 30 33 5 23 -10 -3 -56 -6 -101 -6 -75 1
-84 -1 -89 -19 -4 -13 -23 -25 -59 -37 -39 -12 -54 -22 -54 -35 0 -16 10 -17
128 -14 70 2 140 9 155 15 16 6 40 11 54 11 14 0 37 9 53 20 32 23 71 39 123
51 20 5 54 13 75 18 20 5 45 12 55 16 13 5 17 2 17 -13 0 -12 9 -23 22 -28 20
-6 19 -9 -20 -41 -23 -19 -42 -41 -42 -49 0 -35 -141 -60 -202 -36 -19 8 -35
8 -57 -1 -42 -15 -39 -27 7 -28 l37 0 -55 -26 c-83 -38 -176 -42 -163 -6 5 13
1 15 -18 10 -13 -3 -50 -11 -82 -17 -53 -11 -69 -28 -29 -31 36 -3 -76 -21
-122 -20 -27 1 -54 -3 -60 -8 -19 -14 -78 -22 -70 -9 5 8 -2 9 -22 4 -16 -5
-56 -11 -89 -15 -33 -5 -54 -9 -47 -9 24 -4 11 -21 -23 -31 -38 -10 -78 -4
-69 11 3 5 16 7 29 4 15 -4 25 -1 29 9 4 12 -4 15 -44 15 -33 0 -50 -4 -50
-12 0 -10 -39 -13 -156 -15 -171 -1 -204 -6 -204 -28 0 -10 8 -13 28 -10 77
12 233 25 242 20 22 -14 8 -25 -31 -25 -52 0 -112 -27 -105 -47 4 -8 6 -21 6
-29 0 -8 10 -14 22 -14 16 0 19 3 11 11 -9 9 -8 15 3 26 12 12 23 13 54 5 30
-7 44 -6 60 5 13 9 30 12 43 8 37 -11 201 -34 209 -29 5 3 11 -2 14 -10 8 -20
43 -21 58 -1 7 10 34 16 85 19 42 2 76 8 81 15 16 26 294 11 322 -17 5 -5 11
-24 14 -43 5 -31 2 -39 -30 -67 -20 -18 -48 -32 -61 -32 -16 0 -25 -6 -25 -15
0 -10 -11 -16 -32 -16 -169 -8 -208 -4 -208 22 0 27 -17 32 -39 10 -10 -10
-30 -19 -43 -19 -12 0 -50 -6 -83 -15 -99 -24 -133 -27 -145 -12 -6 8 -27 19
-46 25 -37 13 -42 21 -19 40 8 7 15 18 14 24 0 7 -2 6 -6 -1 -2 -7 -14 -13
-25 -13 -18 0 -20 4 -14 31 4 22 2 29 -7 26 -6 -2 -20 3 -30 11 -16 14 -20 13
-43 -9 -20 -19 -27 -21 -34 -9 -7 11 -19 12 -79 1 -76 -14 -85 -20 -96 -68 -5
-26 -3 -33 9 -33 9 0 16 8 16 18 0 11 5 8 15 -12 8 -15 15 -40 15 -53 0 -22
-3 -25 -30 -21 -20 3 -30 0 -30 -9 0 -7 9 -13 19 -13 11 0 22 -4 26 -9 3 -5
19 -12 36 -16 17 -4 33 -13 35 -20 3 -7 15 -16 27 -19 12 -3 31 -19 42 -36 14
-21 28 -30 47 -30 39 0 56 -30 50 -90 -5 -59 2 -64 23 -13 19 44 28 37 32 -25
2 -35 8 -52 25 -65 22 -19 23 -18 29 6 4 14 10 30 13 36 10 15 36 2 36 -18 0
-9 12 -24 28 -33 29 -18 61 -54 116 -128 32 -44 34 -45 87 -44 44 1 72 10 154
53 110 56 145 63 145 31 0 -14 -13 -26 -42 -40 -24 -11 -65 -40 -91 -65 -27
-25 -53 -45 -59 -45 -6 0 -26 -14 -45 -31 -25 -21 -42 -29 -57 -25 -11 3 -57
11 -102 18 -75 11 -83 14 -104 46 -21 30 -23 38 -13 75 17 63 -22 137 -72 137
-34 0 -115 39 -115 55 0 8 -6 15 -12 15 -7 0 -23 3 -35 6 -17 5 -23 2 -23 -9
0 -8 7 -17 15 -20 9 -4 13 -17 12 -37 -2 -33 -27 -42 -27 -10 0 11 -4 20 -8
20 -13 0 -62 -80 -62 -100 0 -20 -25 -50 -41 -50 -5 0 -9 -4 -9 -10 0 -14 36
-12 61 3 17 10 22 9 30 -5 14 -25 36 -22 50 4 12 21 12 22 19 3 4 -11 6 -33 6
-50 -1 -27 -5 -31 -46 -38 -25 -4 -60 -12 -78 -17 -29 -7 -37 -5 -66 21 -19
16 -41 29 -50 29 -23 0 -86 49 -86 66 0 8 7 14 15 14 19 0 19 34 0 50 -8 7
-15 20 -15 28 0 12 3 13 12 4 20 -20 53 -14 81 16 46 49 93 76 123 70 15 -2
20 4 22 27 3 24 1 28 -9 18 -7 -7 -21 -13 -31 -13 -10 0 -18 -7 -18 -16 0 -12
-7 -14 -28 -9 -20 4 -33 1 -42 -10 -12 -14 -15 -14 -30 0 -15 14 -18 14 -30 0
-19 -23 -84 28 -114 91 -26 53 -67 94 -95 94 -10 0 -26 -7 -37 -15 -10 -8 -27
-15 -37 -15 -10 0 -17 -6 -15 -12 7 -20 40 -22 50 -4 11 19 43 22 34 4 -3 -7
-9 -21 -12 -30 -8 -21 -37 -23 -53 -4 -6 7 -24 16 -40 19 -20 4 -36 19 -56 52
-36 62 -60 55 -39 -12 5 -18 2 -23 -12 -23 -29 0 -6 -15 85 -55 57 -24 99 -51
129 -81 44 -43 53 -48 80 -45 17 3 62 -26 62 -40 0 -5 -8 -9 -17 -7 -13 2 -19
-5 -21 -24 -4 -34 -22 -37 -22 -4 0 13 -8 34 -18 46 -17 21 -18 21 -34 3 -12
-13 -17 -43 -20 -121 -1 -56 0 -102 3 -102 3 0 11 -11 18 -24 9 -16 19 -22 32
-19 12 3 21 -1 24 -11 3 -9 8 -24 12 -33 4 -10 7 -24 8 -30 0 -7 4 -13 8 -13
53 -1 68 2 81 15 18 19 44 19 76 0 24 -14 23 -15 -17 -9 -39 6 -43 5 -43 -15
0 -17 6 -21 33 -21 26 0 37 -6 47 -25 11 -21 19 -25 41 -20 16 4 30 1 34 -5 4
-6 18 -16 32 -21 l25 -9 -23 -18 c-45 -34 -277 -58 -353 -37 -29 8 -29 8 -13
-16 21 -29 21 -39 2 -39 -8 0 -15 -4 -15 -10 0 -5 7 -10 15 -10 9 0 18 -6 21
-14 7 -18 74 -11 131 15 24 10 62 19 85 19 24 1 54 7 68 15 14 8 33 14 42 15
19 0 118 59 118 71 0 9 20 7 38 -4 30 -19 -6 -80 -53 -89 -11 -2 -21 -11 -23
-21 -3 -15 1 -17 23 -11 48 12 60 10 60 -11 0 -15 -10 -22 -43 -29 -31 -7 -42
-13 -40 -25 3 -13 18 -16 75 -17 67 -2 72 0 63 16 -9 16 -6 17 26 10 20 -5 63
-4 97 1 113 16 114 16 113 -38 l-1 -48 39 3 c29 2 48 -4 77 -24 42 -29 48 -41
24 -50 -26 -10 -7 -22 48 -29 49 -7 98 -24 70 -25 -20 0 -15 -28 6 -35 13 -4
18 -12 14 -22 -5 -13 -2 -15 18 -9 36 11 61 9 77 -8 14 -14 12 -16 -14 -27
-49 -19 -7 -23 80 -6 107 21 296 39 426 42 58 1 125 5 150 8 37 5 39 5 15 -3
-16 -5 -43 -12 -58 -15 -53 -11 -18 -21 45 -13 138 18 188 20 188 10 0 -12
-45 -26 -155 -48 -84 -18 -244 -61 -266 -74 -9 -4 -54 -6 -100 -3 -70 5 -82 3
-71 -8 17 -18 133 -24 185 -10 48 14 125 16 180 6 37 -7 52 -25 20 -25 -9 0
-14 -2 -12 -5 3 -2 30 0 60 4 61 10 75 4 84 -40 5 -22 2 -36 -11 -50 -24 -27
-45 -24 -76 11 -32 37 -54 38 -178 6 -52 -14 -117 -28 -145 -32 -27 -3 -62
-13 -77 -20 -15 -8 -43 -14 -63 -14 -19 0 -35 -5 -35 -11 0 -13 132 -4 202 13
37 9 50 9 62 -1 9 -8 53 -14 110 -16 52 -2 100 -6 106 -10 6 -3 24 1 42 9 17
9 40 16 51 16 11 0 37 5 59 12 31 9 44 9 59 0 10 -7 26 -12 34 -12 8 0 15 -5
15 -11 0 -7 10 -9 26 -6 14 2 31 -1 37 -7 16 -15 57 -20 57 -7 0 17 57 13 63
-4 8 -19 -13 -31 -24 -14 -4 7 -11 11 -14 8 -10 -10 6 -37 25 -42 13 -3 16
-11 13 -31 -3 -14 -12 -26 -20 -26 -7 0 -24 -6 -36 -14 -22 -15 -67 -17 -232
-11 l-80 2 3 27 c3 30 -20 45 -43 26 -11 -9 -11 -17 -3 -36 9 -19 8 -28 -6
-43 -17 -19 -16 -19 31 -16 26 1 61 6 76 10 28 7 107 -19 107 -36 0 -10 64
-47 87 -50 10 -2 41 3 68 9 52 13 141 12 163 -2 25 -15 10 -23 -45 -22 -49 1
-58 -2 -61 -18 -2 -10 2 -23 10 -28 9 -6 1 -8 -22 -4 -28 5 -38 2 -48 -14 -7
-12 -10 -25 -7 -30 4 -6 -7 -10 -24 -10 -16 0 -33 5 -36 10 -8 13 -132 13
-140 0 -3 -5 -35 -8 -73 -5 -49 3 -71 9 -82 22 -12 14 -25 17 -60 13 -47 -6
-70 -15 -70 -30 0 -15 34 -17 67 -3 42 17 42 17 52 -10 7 -18 22 -26 75 -37
63 -13 89 -30 46 -30 -35 0 -22 -17 30 -39 27 -12 66 -33 86 -46 20 -14 47
-25 60 -25 13 0 35 -11 49 -24 l26 -24 -138 -6 c-76 -4 -158 -11 -183 -17 -25
-6 -66 -14 -92 -18 -25 -4 -53 -13 -61 -19 -11 -9 -26 -10 -58 -3 -52 12 -70
1 -51 -29 18 -29 16 -30 -37 -30 -54 0 -94 12 -117 35 -9 8 -23 15 -32 15 -13
-1 -11 -5 9 -20 45 -34 129 -117 129 -129 0 -6 13 -17 29 -25 35 -18 48 -45
23 -48 -9 -1 -53 -3 -97 -4 -44 -2 -95 -6 -114 -10 -31 -6 -33 -6 -22 15 14
26 14 26 -40 2 -47 -20 -226 -48 -237 -36 -4 4 5 17 19 29 29 25 31 62 4 82
-10 7 -21 11 -25 9 -4 -3 -15 4 -25 15 -11 13 -25 18 -37 14 -10 -3 -18 -1
-18 5 0 6 -12 11 -27 10 -25 -1 -23 -3 18 -21 36 -15 48 -26 52 -46 7 -37 -6
-49 -63 -61 -49 -11 -80 -7 -80 10 0 5 -13 6 -30 3 -23 -5 -30 -3 -30 10 0 20
-18 20 -57 1 -17 -8 -43 -17 -59 -19 -16 -2 -44 -10 -63 -16 -29 -11 -35 -11
-43 4 -5 9 -14 13 -21 9 -7 -4 -40 -8 -74 -8 -69 0 -68 0 -77 -37 -6 -25 -4
-27 31 -30 24 -2 48 3 64 14 29 19 98 28 99 13 1 -5 -13 -13 -30 -16 -49 -10
-61 -29 -19 -30 l34 0 -35 -16 c-19 -8 -43 -19 -52 -24 -10 -5 -35 -10 -55
-10 -36 -1 -35 -2 15 -13 68 -14 67 -31 -1 -29 -29 0 -55 -3 -58 -8 -8 -14
-162 -39 -175 -28 -11 9 -54 1 -54 -11 0 -4 32 -11 72 -16 46 -6 73 -14 76
-23 3 -10 -3 -12 -29 -9 -36 6 -88 -12 -109 -36 -7 -10 -28 -16 -51 -16 -27 0
-46 -7 -66 -27 -21 -19 -23 -24 -8 -18 22 9 52 9 105 0 29 -5 50 1 117 35 46
23 88 50 94 61 14 26 53 41 81 30 23 -9 23 -9 -4 -21 -16 -7 -28 -17 -28 -22
0 -4 -9 -8 -20 -8 -22 0 -26 -10 -9 -27 14 -14 4 -32 -27 -43 -13 -5 -24 -16
-24 -25 0 -18 36 -20 43 -2 5 14 71 37 106 37 12 0 32 6 44 14 26 18 159 29
192 16 34 -13 52 -73 31 -103 -41 -59 -66 -75 -66 -42 0 20 -10 19 -26 -2 -7
-10 -16 -14 -20 -10 -5 4 -2 12 6 17 8 6 10 10 4 10 -7 0 -15 11 -18 25 -4 14
-11 25 -16 25 -13 0 -30 -43 -30 -73 0 -33 -58 -137 -101 -182 -36 -38 -44
-41 -94 -42 -52 -1 -56 1 -70 28 -16 30 -42 37 -75 19 -14 -8 -26 -3 -56 25
-21 19 -44 35 -51 35 -19 0 -16 -9 7 -28 19 -15 20 -21 9 -52 -7 -19 -18 -42
-25 -51 -8 -8 -14 -20 -14 -26 0 -25 -41 -46 -87 -45 -54 0 -73 -16 -123 -103
-41 -71 -150 -171 -150 -139 0 4 15 23 33 44 69 79 70 80 63 126 -3 24 -1 46
4 49 17 11 11 45 -8 45 -30 0 -57 -41 -57 -86 0 -37 -2 -40 -17 -30 -10 6 -18
22 -18 36 0 14 -5 31 -10 36 -7 7 -4 16 10 29 17 16 23 17 30 6 6 -11 16 -7
46 17 25 21 50 32 69 32 43 0 64 18 70 61 4 26 1 40 -11 50 -9 8 -19 12 -22 9
-2 -3 -11 12 -20 33 -15 39 -15 39 14 62 42 35 81 50 97 37 31 -25 167 -4 167
26 0 10 5 23 11 29 17 17 -115 16 -204 -3 -74 -15 -79 -15 -91 2 -11 14 -10
20 6 36 10 10 22 18 28 18 6 0 10 7 10 16 0 17 -12 12 -45 -16 -23 -21 -108
-41 -125 -30 -21 13 -7 45 23 48 15 2 27 8 27 13 0 6 -9 7 -20 4 -27 -9 -60 3
-60 21 0 10 14 14 52 14 28 0 78 7 110 16 47 13 61 14 73 4 13 -10 15 -9 15
10 0 22 2 23 73 16 l72 -6 2 26 c1 28 6 28 -97 8 -14 -3 -44 -7 -67 -9 -23 -2
-59 -13 -80 -23 -21 -11 -61 -21 -89 -24 -48 -4 -51 -3 -46 15 4 16 2 19 -12
14 -10 -4 -19 -7 -22 -7 -2 0 -1 -7 2 -15 4 -11 -1 -15 -17 -15 -24 0 -57 -16
-49 -23 3 -2 20 -10 37 -18 l33 -15 -30 -35 c-16 -19 -29 -42 -30 -51 0 -25
-19 -32 -46 -17 -19 10 -27 10 -36 1 -9 -9 -9 -15 0 -24 7 -7 12 -27 12 -46 0
-26 -3 -33 -15 -28 -11 4 -15 -2 -15 -23 0 -21 -9 -37 -32 -55 -51 -40 -78
-69 -78 -83 0 -7 8 -25 18 -40 22 -36 57 -33 70 6 7 19 19 30 36 33 29 6 38
-18 11 -28 -8 -4 -15 -11 -15 -16 0 -14 68 -3 148 23 87 29 98 19 16 -15 -38
-15 -78 -32 -89 -36 -11 -5 -30 -12 -42 -15 -13 -4 -23 -11 -23 -17 0 -6 -8
-16 -17 -23 -15 -11 -15 -15 -4 -29 10 -12 11 -19 2 -30 -7 -8 -8 -17 -3 -20
5 -3 12 -17 15 -31 l4 -26 -22 21 c-13 12 -29 35 -35 50 -16 38 -29 42 -143
46 -82 2 -105 7 -140 27 -53 30 -94 41 -103 26 -4 -7 1 -16 10 -21 9 -5 16
-17 16 -28 0 -29 142 -90 210 -90 17 0 50 -21 97 -63 66 -58 75 -63 110 -59
28 3 35 1 27 -7 -23 -25 -216 -10 -234 18 -3 5 -28 14 -57 21 -41 11 -55 11
-66 1 -18 -15 -60 -6 -104 23 -51 33 -69 89 -33 101 11 3 20 15 20 26 0 22
-15 25 -24 4 -3 -8 -12 -12 -20 -9 -17 7 -36 -24 -36 -58 0 -13 12 -40 26 -59
23 -30 25 -41 21 -92 -3 -32 -14 -73 -26 -92 -22 -39 -17 -42 34 -21 27 12 36
12 44 2 7 -9 7 -16 -2 -25 -26 -27 86 -83 215 -108 34 -6 134 -58 144 -74 3
-5 20 -9 38 -9 17 0 37 -5 42 -10 6 -6 43 -14 82 -19 40 -5 83 -16 96 -24 15
-10 27 -12 33 -6 10 10 135 -40 147 -60 4 -6 17 -11 29 -11 12 0 35 -7 51 -15
15 -8 36 -15 46 -15 10 0 33 -6 52 -14 19 -8 70 -17 113 -20 82 -6 119 -15
198 -49 57 -25 80 -47 48 -47 -11 0 -21 -4 -21 -10 0 -5 4 -10 9 -10 11 0 71
-52 71 -61 0 -3 -12 -4 -27 -1 -21 4 -25 2 -20 -12 5 -13 2 -15 -21 -10 -15 4
-40 18 -55 31 -37 30 -49 29 -35 -2 6 -14 15 -25 19 -25 12 0 21 -33 26 -102
5 -78 -9 -134 -38 -143 -10 -4 -19 -11 -19 -16 0 -5 -7 -9 -15 -9 -23 0 -18
15 15 48 28 29 41 72 21 72 -13 0 -85 -31 -91 -40 -7 -10 -50 -23 -50 -15 0 4
9 18 19 31 16 20 17 30 9 65 -14 53 4 74 62 72 50 -2 52 15 6 51 -32 24 -36
25 -51 10 -11 -11 -25 -14 -45 -10 -39 7 -45 -6 -15 -34 13 -13 22 -27 18 -33
-3 -6 -6 -25 -5 -44 2 -38 -12 -42 -58 -18 -25 13 -30 21 -30 54 0 23 -6 44
-15 51 -21 17 -3 30 43 30 20 0 35 6 38 15 4 8 12 15 19 15 22 0 28 20 8 27
-10 4 -23 13 -29 21 -9 13 -12 13 -17 -2 -4 -10 -1 -16 9 -16 35 0 5 -22 -36
-27 -100 -11 -105 -10 -104 17 1 27 -11 40 -38 40 -11 0 -15 -6 -11 -20 4 -15
0 -20 -15 -20 -12 0 -23 -4 -26 -9 -3 -5 -14 -7 -24 -4 -16 4 -18 0 -14 -29 2
-18 9 -38 14 -45 6 -7 5 -14 -3 -18 -6 -4 -14 -3 -18 2 -3 6 -16 13 -28 17
-13 4 -23 12 -23 17 0 16 -25 10 -37 -11 -15 -23 -11 -26 57 -46 30 -9 50 -21
50 -29 0 -8 11 -17 24 -21 14 -3 27 -13 30 -21 5 -12 9 -13 20 -4 27 22 91
-18 67 -42 -6 -6 -11 -23 -11 -38 0 -15 -4 -31 -10 -34 -5 -3 -10 -17 -10 -30
0 -15 -11 -31 -29 -45 -17 -11 -33 -30 -36 -41 -5 -16 -12 -19 -31 -15 -28 7
-30 1 -9 -20 16 -16 20 -44 8 -44 -16 0 -63 48 -63 64 0 9 -8 16 -20 16 -23 0
-24 -3 -8 -30 11 -16 9 -22 -7 -34 -11 -9 -30 -16 -41 -16 -22 0 -54 -38 -54
-64 0 -8 -12 -24 -28 -35 -30 -23 -18 -27 25 -9 15 6 30 12 33 13 10 3 86 38
113 52 16 8 31 12 34 9 11 -10 33 16 33 39 0 12 7 28 16 36 8 7 22 26 30 42
15 27 16 28 30 10 14 -17 14 -17 28 1 8 10 19 15 24 12 6 -3 30 5 54 19 50 29
68 31 68 10 0 -8 5 -15 11 -15 5 0 -2 -10 -17 -23 -23 -20 -25 -26 -15 -45 10
-20 8 -24 -21 -42 -18 -11 -41 -20 -50 -20 -32 0 -49 -13 -68 -51 -23 -45 -52
-63 -86 -55 -18 5 -28 0 -46 -24 -25 -35 -42 -37 -81 -11 -24 15 -34 17 -58 7
-24 -9 -32 -8 -39 4 -7 12 -12 12 -22 2 -17 -17 -25 -15 -31 9 -3 13 -10 18
-17 14 -7 -4 -9 -18 -5 -32 5 -23 4 -25 -20 -19 -23 6 -25 4 -20 -17 5 -19 -3
-32 -41 -67 -46 -42 -63 -81 -63 -145 0 -19 0 -19 13 -2 20 27 86 14 86 -17 1
-39 51 -79 88 -69 13 3 36 -4 57 -17 27 -17 39 -19 49 -11 11 9 22 7 49 -8 20
-11 51 -23 71 -26 37 -7 83 -45 54 -45 -9 0 -32 7 -53 15 -27 12 -40 13 -50 5
-10 -8 -26 -7 -62 3 -60 18 -179 73 -188 87 -3 5 -16 10 -28 10 -16 0 -18 -3
-9 -12 16 -16 15 -28 -1 -28 -8 0 -44 9 -81 21 -52 17 -76 31 -109 66 -23 24
-43 49 -45 54 -2 5 -9 9 -15 9 -8 0 -7 -4 1 -12 13 -13 17 -48 5 -48 -3 0 -32
22 -62 48 -70 60 -126 102 -136 102 -4 0 5 -16 19 -35 34 -44 18 -46 -18 -3
-20 25 -25 39 -20 60 7 33 -2 35 -36 8 -30 -24 -40 -25 -40 -5 0 8 -21 25 -47
38 -33 15 -49 29 -51 45 -2 12 -8 22 -13 22 -5 0 -7 10 -5 23 2 17 9 21 29 19
27 -3 37 14 35 63 -1 25 -36 65 -58 65 -27 0 -31 -12 -10 -27 11 -8 20 -25 20
-39 0 -20 -5 -24 -30 -24 -31 0 -41 -16 -16 -26 8 -3 14 -13 14 -22 -1 -9 2
-27 6 -39 5 -14 3 -23 -3 -23 -6 0 -11 4 -11 8 0 5 -11 14 -24 20 -15 6 -27
23 -31 42 -4 20 -17 36 -38 47 -18 9 -38 24 -45 34 -7 11 -22 24 -33 29 -16 9
-21 7 -28 -12 -9 -23 -9 -23 -22 7 -7 17 -11 34 -10 39 1 5 -5 6 -14 3 -8 -4
-15 -2 -15 3 0 6 -10 10 -23 10 -13 0 -29 6 -37 12 -23 22 51 -72 144 -182
108 -126 288 -306 416 -415 52 -44 91 -74 87 -67 -11 16 -1 15 65 -8 32 -11
84 -20 118 -21 33 -1 60 -4 60 -6 0 -2 -6 -11 -12 -18 -34 -38 -39 -47 -34
-60 4 -12 9 -12 35 1 32 16 73 11 92 -12 9 -11 15 -11 25 -3 19 16 74 3 114
-26 35 -26 60 -32 60 -15 0 21 50 9 77 -19 23 -23 35 -27 63 -24 19 2 46 10
58 16 20 9 25 8 34 -7 7 -12 17 -16 34 -12 17 5 26 1 33 -13 16 -29 40 -33 75
-11 27 16 38 18 70 9 24 -7 40 -18 43 -30 5 -20 32 -25 48 -10 6 4 30 6 53 3
40 -4 43 -7 39 -28 -4 -22 -2 -23 37 -18 37 5 43 3 61 -25 19 -30 65 -44 65
-21 0 6 11 10 24 10 14 0 28 5 31 10 3 6 17 10 30 10 23 0 24 -2 13 -25 -13
-28 -12 -30 20 -40 18 -5 25 -2 29 13 4 17 8 18 33 9 l28 -11 -25 -13 c-14 -7
-36 -13 -49 -13 -13 0 -24 -4 -24 -9 0 -21 -35 -22 -52 -1 -10 12 -22 19 -27
16 -5 -4 -11 -1 -13 6 -3 8 -9 8 -24 0 -10 -6 -13 -12 -6 -12 6 0 12 -6 12
-14 0 -8 7 -16 15 -20 26 -10 16 -26 -15 -26 -28 0 -30 3 -28 28 2 21 -2 28
-18 30 -15 2 -23 -3 -27 -17 -3 -12 -13 -21 -24 -21 -11 0 -23 -3 -27 -7 -15
-15 -92 -1 -123 23 -24 18 -44 24 -82 24 -45 0 -51 -2 -51 -21 0 -12 8 -27 17
-34 15 -11 15 -13 -5 -19 -12 -4 -31 -2 -42 4 -12 7 -33 14 -48 16 -14 3 -53
14 -85 25 -33 11 -65 18 -72 15 -7 -2 -32 2 -55 10 -84 29 -48 5 102 -69 412
-202 831 -325 1308 -384 203 -24 667 -24 870 0 1113 137 2063 680 2732 1562
354 467 612 1059 722 1655 48 263 60 404 60 715 0 311 -12 452 -60 715 -247
1339 -1163 2456 -2427 2959 -322 128 -659 213 -1017 256 -127 15 -577 28 -680
19z m-143 -379 c-10 -7 -28 -10 -40 -7 -19 5 -17 7 13 17 40 14 53 9 27 -10z
m53 4 c0 -5 7 -9 15 -9 13 0 14 -4 5 -21 -9 -16 -19 -19 -47 -17 -39 3 -60 28
-24 28 14 0 21 6 21 20 0 13 5 18 15 14 8 -4 15 -10 15 -15z m-935 -209 c-3
-5 -12 -7 -20 -3 -21 7 -19 13 6 13 11 0 18 -4 14 -10z m-535 -30 c0 -5 -5
-10 -11 -10 -5 0 -7 5 -4 10 3 6 8 10 11 10 2 0 4 -4 4 -10z m1565 -496 c12
-5 14 -9 4 -14 -15 -10 -41 -1 -33 11 6 11 8 11 29 3z m-545 -98 c0 -3 -4 -8
-10 -11 -5 -3 -10 -1 -10 4 0 6 5 11 10 11 6 0 10 -2 10 -4z m-293 -654 c32
-1 47 -8 75 -36 20 -20 43 -36 52 -36 9 0 16 -7 16 -15 0 -23 33 -34 85 -29
26 3 64 2 84 -2 l36 -7 -30 -8 c-16 -5 -84 -11 -150 -14 l-121 -6 -28 30 c-23
24 -27 33 -18 44 7 8 9 16 7 19 -3 3 6 3 20 1 14 -3 25 -1 25 5 0 26 -90 30
-115 6 -9 -9 -17 -15 -18 -13 -17 26 -28 59 -23 67 4 7 17 7 34 2 16 -4 47 -8
69 -8z m-7 -62 c0 -6 -6 -19 -12 -30 -10 -16 -10 -24 0 -40 15 -24 0 -27 -22
-4 -19 18 -21 70 -3 77 21 9 37 7 37 -3z m-257 -135 c4 -8 2 -17 -2 -20 -5 -2
-11 4 -14 15 -6 23 8 27 16 5z m-462 -33 c-11 -21 -5 -52 9 -52 5 0 11 -9 15
-20 5 -16 159 -117 215 -141 13 -6 13 -8 -2 -14 -10 -4 -41 7 -82 28 -36 20
-81 38 -99 42 -17 4 -43 14 -56 22 -14 9 -34 17 -45 18 -12 1 -24 3 -28 4 -24
4 20 111 45 111 10 0 20 7 24 15 3 9 8 14 10 11 3 -2 0 -13 -6 -24z m1195 -29
c-10 -10 -19 5 -10 18 6 11 8 11 12 0 2 -7 1 -15 -2 -18z m-672 -19 c3 -8 2
-12 -4 -9 -6 3 -10 10 -10 16 0 14 7 11 14 -7z m-4 -74 c0 -5 -4 -10 -10 -10
-5 0 -10 5 -10 10 0 6 5 10 10 10 6 0 10 -4 10 -10z m120 -76 c30 -4 63 -11
73 -16 24 -13 129 -13 153 -1 10 6 37 13 59 16 22 4 33 4 25 0 -8 -3 -25 -15
-38 -26 -28 -26 -35 -28 -162 -31 -92 -3 -110 0 -150 20 -25 12 -53 36 -62 52
-25 43 -22 46 15 18 20 -16 52 -27 87 -32z m-217 -151 c-7 -2 -19 -2 -25 0 -7
3 -2 5 12 5 14 0 19 -2 13 -5z m127 -132 c0 -11 -31 -24 -39 -16 -3 3 1 10 9
15 19 12 30 12 30 1z m58 2 c-10 -2 -26 -2 -35 0 -10 3 -2 5 17 5 19 0 27 -2
18 -5z m521 -37 c9 -11 8 -15 -4 -20 -9 -3 -13 -2 -10 4 3 6 -1 10 -9 10 -9 0
-16 5 -16 10 0 15 26 12 39 -4z m75 -50 c23 -19 25 -24 12 -29 -9 -4 -16 -2
-16 3 0 6 -9 10 -20 10 -10 0 -24 9 -30 20 -9 17 -8 20 8 20 10 0 31 -11 46
-24z m46 -96 c0 -5 -4 -10 -9 -10 -6 0 -13 5 -16 10 -3 6 1 10 9 10 9 0 16 -4
16 -10z m76 -1 c8 -14 -14 -29 -33 -22 -7 3 -13 11 -13 19 0 17 36 19 46 3z
m336 -73 c19 -14 18 -15 -23 -20 -24 -3 -78 -10 -119 -17 -114 -18 -173 -21
-190 -10 -25 17 1 30 70 35 46 3 68 10 75 21 8 14 22 16 88 11 43 -3 87 -12
99 -20z m259 -209 c-7 -7 -50 -13 -109 -15 -79 -3 -95 -1 -84 9 7 8 46 15 100
17 48 2 89 6 91 8 2 2 7 2 10 -1 2 -3 -1 -11 -8 -18z m69 -909 c44 -12 81 -29
98 -45 11 -11 10 -13 -6 -13 -29 0 -53 11 -46 21 7 12 -82 12 -122 0 -28 -8
-79 -3 -153 14 -23 6 -23 7 -5 20 11 7 31 15 44 17 35 6 148 -2 190 -14z m258
-82 c15 -15 15 -16 -3 -16 -10 0 -26 -7 -36 -16 -22 -20 -59 -10 -59 17 0 12
-7 19 -20 19 -25 0 -27 17 -2 22 31 7 103 -9 120 -26z m-268 10 c0 -3 -4 -8
-10 -11 -5 -3 -10 -1 -10 4 0 6 5 11 10 11 6 0 10 -2 10 -4z m138 -95 c-23
-29 -38 -31 -115 -15 -39 8 -25 21 25 23 26 1 49 6 50 11 2 6 17 10 34 10 l30
0 -24 -29z m-1388 -98 c0 -5 -16 -9 -35 -10 -19 -2 -35 2 -35 7 0 6 16 10 35
10 19 0 35 -3 35 -7z m45 -73 c-27 -11 -55 -20 -62 -20 -6 0 -19 -10 -27 -22
-11 -15 -19 -19 -26 -12 -16 16 29 51 80 62 73 16 88 12 35 -8z m-260 -170 c3
-6 -1 -13 -10 -16 -19 -8 -30 0 -20 15 8 14 22 14 30 1z m-331 -169 c3 -5 -1
-12 -10 -15 -27 -10 -35 -7 -22 9 15 17 25 19 32 6z m3500 -26 c11 -17 14 -31
8 -43 -5 -9 -7 -23 -5 -30 3 -7 -3 -22 -13 -33 -15 -16 -16 -24 -6 -39 7 -12
8 -21 2 -25 -6 -3 -10 -18 -10 -32 0 -19 -4 -24 -16 -19 -8 3 -26 3 -40 0 -18
-5 -24 -13 -24 -33 0 -15 4 -31 9 -36 4 -6 11 -25 15 -44 l6 -34 -33 34 c-36
38 -77 124 -77 164 0 42 24 87 77 143 55 58 82 65 107 27z m-3884 -25 c-11
-20 -7 -53 12 -103 9 -22 7 -31 -6 -46 -9 -9 -16 -22 -16 -28 0 -19 -63 -50
-90 -43 -20 5 -25 12 -25 35 0 23 -4 30 -18 29 -14 -2 -16 3 -11 20 9 28 16
34 21 19 3 -7 10 -13 16 -13 7 1 2 9 -11 20 -21 18 -22 19 -3 17 11 -1 23 -7
25 -14 9 -22 26 -15 26 10 0 13 7 32 15 43 8 10 15 27 15 37 0 10 10 22 23 27
34 13 39 12 27 -10z m1100 -57 c-8 -4 -21 -12 -29 -20 -18 -18 -28 -8 -11 12
7 8 22 15 34 14 14 0 16 -2 6 -6z m520 -81 c0 -4 -5 -13 -12 -20 -9 -9 -8 -12
4 -12 21 0 32 -16 21 -32 -4 -7 -8 -19 -8 -27 0 -20 -25 -26 -25 -7 0 21 -10
20 -25 -1 -7 -9 -25 -17 -41 -19 -50 -4 -118 -15 -144 -24 -14 -5 -40 -11 -57
-14 -27 -5 -33 -2 -33 13 0 10 11 23 23 28 13 6 32 27 41 47 15 32 36 48 36
29 0 -5 4 -14 9 -21 6 -10 15 -9 42 7 19 11 51 27 71 35 40 17 42 13 23 -36
-4 -10 -3 -18 3 -18 5 0 13 8 16 18 15 38 31 62 43 62 7 0 13 -4 13 -8z
m-1840 -6 c0 -3 -4 -8 -10 -11 -5 -3 -10 -1 -10 4 0 6 5 11 10 11 6 0 10 -2
10 -4z m368 -42 c-4 -21 -48 -33 -48 -13 0 7 8 21 17 31 19 21 37 10 31 -18z
m1652 26 c0 -5 -10 -10 -22 -9 -22 0 -22 1 -3 9 11 5 21 9 23 9 1 1 2 -3 2 -9z
m170 -1 c11 -8 12 -12 3 -16 -23 -9 -14 -33 11 -33 23 0 76 -38 76 -54 0 -3
-13 -6 -30 -6 -23 0 -30 5 -30 19 0 13 -10 20 -31 25 -37 7 -91 46 -65 46 9 0
19 7 22 15 7 18 23 19 44 4z m-1066 -8 c6 -9 -74 -61 -94 -61 -22 0 -4 24 36
47 44 25 51 27 58 14z m-124 -75 c0 -2 -7 -6 -15 -10 -8 -3 -15 -1 -15 4 0 6
7 10 15 10 8 0 15 -2 15 -4z m1133 -3 c-7 -2 -19 -2 -25 0 -7 3 -2 5 12 5 14
0 19 -2 13 -5z m204 -9 c-3 -3 -12 -4 -19 -1 -8 3 -5 6 6 6 11 1 17 -2 13 -5z
m-851 -25 c8 -13 -32 -56 -42 -46 -8 8 15 57 27 57 4 0 11 -5 15 -11z m-1346
-33 c0 -8 -4 -17 -9 -21 -12 -7 -24 12 -16 25 9 15 25 12 25 -4z m282 -83
c-18 -51 -28 -70 -30 -56 -2 12 2 31 8 42 13 26 3 27 -23 4 -19 -18 -20 -17
-7 7 54 103 86 105 52 3z m222 16 c-36 -40 -46 -17 -12 27 19 24 23 26 26 10
2 -9 -4 -26 -14 -37z m3481 31 c-3 -5 -15 -10 -26 -10 -10 0 -19 5 -19 10 0 6
12 10 26 10 14 0 23 -4 19 -10z m-2610 -30 c3 -6 -1 -13 -9 -16 -22 -8 -68 4
-61 16 8 13 62 13 70 0z m-936 -49 c-19 -30 -4 -37 27 -12 15 11 33 21 42 21
25 0 -8 -31 -56 -52 -23 -11 -56 -32 -73 -49 -29 -29 -59 -38 -59 -19 0 6 4
10 9 10 5 0 25 25 45 55 33 49 65 79 74 70 2 -2 -2 -12 -9 -24z m727 -28 c-10
-10 -19 5 -10 18 6 11 8 11 12 0 2 -7 1 -15 -2 -18z m353 -1 c11 -22 82 -47
105 -39 9 4 27 2 40 -5 24 -10 138 0 195 17 23 8 23 8 6 -19 -11 -17 -24 -25
-33 -21 -8 3 -26 -2 -39 -10 -13 -9 -32 -14 -41 -11 -9 3 -20 6 -25 6 -4 0
-20 6 -37 15 -40 21 -81 20 -73 -1 5 -13 2 -15 -16 -9 -15 4 -29 1 -41 -10
-21 -19 -18 -37 5 -28 8 3 15 1 15 -5 0 -14 -100 -12 -100 2 0 6 -5 3 -11 -7
-15 -26 3 -43 51 -51 50 -8 52 -21 3 -24 -21 -1 -49 -6 -63 -11 -14 -5 -51
-13 -83 -16 -51 -6 -61 -10 -75 -36 -12 -21 -25 -29 -44 -29 -18 0 -28 5 -28
15 0 22 -30 18 -81 -8 -44 -24 -133 -48 -96 -26 9 5 17 18 17 27 1 38 83 102
131 102 11 0 17 5 14 10 -3 6 -17 10 -31 10 -26 0 -31 9 -12 28 7 7 16 8 22 3
6 -5 20 -5 31 -1 17 7 15 9 -14 16 l-34 7 27 24 c15 12 37 23 50 23 13 0 33 9
46 20 13 11 30 20 39 20 9 1 33 7 55 15 30 10 43 11 58 2 16 -10 21 -9 29 6
13 22 26 22 38 -1z m456 -82 c3 -5 1 -10 -4 -10 -6 0 -11 5 -11 10 0 6 2 10 4
10 3 0 8 -4 11 -10z m-1695 -30 c0 -5 -4 -10 -10 -10 -5 0 -10 5 -10 10 0 6 5
10 10 10 6 0 10 -4 10 -10z m-40 -19 c0 -5 -7 -11 -15 -15 -8 -3 -25 -26 -37
-51 -17 -34 -28 -45 -45 -45 -49 0 -19 63 47 100 40 21 50 24 50 11z m-665
-21 c4 -6 -9 -10 -32 -9 -34 1 -35 2 -13 9 35 11 38 11 45 0z m2128 -55 c4 -8
2 -17 -3 -20 -13 -8 -52 14 -45 26 9 14 42 11 48 -6z m175 -12 c2 -8 -5 -13
-17 -13 -21 0 -35 13 -24 24 10 10 36 3 41 -11z m-118 -3 c0 -5 -4 -10 -9 -10
-6 0 -13 5 -16 10 -3 6 1 10 9 10 9 0 16 -4 16 -10z m-2139 -32 c33 -40 21
-60 -22 -38 -19 10 -26 40 -12 53 10 10 13 9 34 -15z m149 -30 c0 -15 -23 -8
-41 14 -29 32 -23 41 11 16 17 -12 30 -25 30 -30z m2234 36 c3 -8 2 -12 -4 -9
-6 3 -10 10 -10 16 0 14 7 11 14 -7z m-2310 -45 c-8 -13 -24 -1 -24 18 0 13 3
13 15 3 8 -7 12 -16 9 -21z m1154 -477 c2 -7 -3 -12 -12 -12 -9 0 -16 7 -16
16 0 17 22 14 28 -4z m80 -190 c2 -7 0 -12 -5 -10 -10 3 -73 -53 -73 -65 0 -5
-9 -21 -21 -35 l-20 -26 3 54 c3 50 6 56 33 68 17 7 37 17 45 22 18 11 32 8
38 -8z m-430 -32 c9 0 24 -4 32 -10 12 -7 12 -12 -4 -29 -25 -27 -32 -26 -40
4 -6 22 -10 24 -34 18 -25 -6 -26 -5 -13 11 8 9 21 14 28 11 8 -3 22 -5 31 -5z
m577 -81 c-20 -39 -30 -49 -44 -44 -12 3 -21 0 -25 -10 -7 -19 -28 -20 -24 -1
3 14 0 16 -21 16 -5 0 -14 -13 -21 -30 -8 -18 -20 -30 -31 -30 -24 0 -25 16
-1 29 14 9 14 12 4 19 -11 8 -11 10 2 15 9 4 15 12 14 19 -2 9 11 14 37 16 25
2 53 12 70 27 17 13 38 24 48 25 15 0 15 -5 -8 -51z m233 -43 c10 -23 7 -26
-45 -58 -30 -18 -67 -43 -83 -55 -36 -30 -40 -29 -40 8 0 25 3 29 19 24 11 -3
38 8 73 30 43 28 55 41 51 56 -7 27 12 24 25 -5z m-158 -1 c-6 -8 -9 -18 -7
-23 12 -18 -10 -33 -37 -26 -33 8 -29 22 10 45 36 22 50 23 34 4z m-410 -10
c0 -9 12 -18 30 -22 44 -8 52 -27 8 -20 -27 4 -46 -1 -84 -24 -62 -36 -87 -38
-82 -5 1 13 -3 31 -11 40 -17 20 -1 21 25 1 38 -29 110 -11 99 26 -4 11 -2 19
4 19 6 0 11 -7 11 -15z m720 -15 c0 -5 -7 -10 -16 -10 -8 0 -12 5 -9 10 3 6
10 10 16 10 5 0 9 -4 9 -10z m-50 -4 c0 -9 -40 -13 -46 -5 -3 5 6 9 20 9 14 0
26 -2 26 -4z m-540 -36 c0 -5 -7 -10 -15 -10 -8 0 -15 5 -15 10 0 6 7 10 15
10 8 0 15 -4 15 -10z m100 -29 c-12 -24 -79 -66 -88 -56 -4 4 0 10 8 13 8 3
26 17 40 32 30 33 56 40 40 11z m115 -2 c11 -17 0 -20 -21 -4 -17 13 -17 14
-2 15 9 0 20 -5 23 -11z m-493 -34 c0 -5 -5 -11 -11 -13 -6 -2 -11 4 -11 13 0
9 5 15 11 13 6 -2 11 -8 11 -13z m-29 -72 c-6 -37 -28 -44 -38 -12 -4 11 -5
21 -3 22 1 1 12 7 23 13 11 7 21 11 21 10 1 0 -1 -16 -3 -33z m-103 0 c0 -5
-5 -15 -10 -23 -8 -12 -10 -11 -10 8 0 12 5 22 10 22 6 0 10 -3 10 -7z m-110
-128 c0 -8 11 -22 25 -31 17 -11 25 -25 25 -45 0 -37 -13 -37 -40 1 -17 24
-29 30 -59 30 -29 0 -40 -5 -48 -22 -6 -14 -12 -18 -17 -10 -4 6 2 19 14 29
11 10 20 22 20 28 0 19 23 35 52 35 18 0 28 -5 28 -15z m-194 -18 c2 -7 -2
-26 -10 -42 -14 -28 -18 -29 -74 -27 -47 1 -65 -3 -86 -19 -41 -32 -46 -12 -6
22 22 17 47 29 66 29 19 0 39 9 54 25 26 27 48 32 56 12z m49 -54 c-9 -36 -28
-48 -37 -23 -10 28 1 50 24 50 17 0 19 -4 13 -27z m-95 -61 c0 -9 -44 -32 -60
-32 -20 0 -9 17 18 27 35 14 42 15 42 5z m-632 -60 c34 -30 40 -42 18 -42 -20
0 -66 39 -66 56 0 21 11 17 48 -14z m819 -29 c73 -36 118 -96 108 -143 -7 -31
-8 -31 -48 -25 -86 14 -119 27 -160 65 -22 22 -54 44 -69 51 -32 13 -38 34 -9
26 15 -3 26 5 43 30 27 40 46 40 135 -4z m-337 13 c0 -11 -19 -15 -25 -6 -3 5
1 10 9 10 9 0 16 -2 16 -4z m1070 -32 c0 -2 -9 0 -20 6 -11 6 -20 13 -20 16 0
2 9 0 20 -6 11 -6 20 -13 20 -16z m-60 12 c0 -3 -4 -8 -10 -11 -5 -3 -10 -1
-10 4 0 6 5 11 10 11 6 0 10 -2 10 -4z m-1420 -47 c0 -5 -4 -9 -10 -9 -5 0
-10 7 -10 16 0 8 5 12 10 9 6 -3 10 -10 10 -16z m1230 2 c0 -10 -7 -24 -15
-31 -13 -10 -15 -9 -15 12 0 14 3 28 7 31 12 13 23 7 23 -12z m157 -32 c16 -6
23 -15 20 -24 -3 -7 5 -30 19 -50 l25 -37 -40 29 c-40 28 -85 99 -74 116 3 5
10 2 15 -7 5 -10 21 -21 35 -27z m-911 17 c10 -8 16 -17 12 -21 -4 -4 -19 2
-34 14 -30 24 -10 30 22 7z m1032 2 c16 -16 15 -28 -2 -28 -17 0 -38 24 -29
33 9 10 17 9 31 -5z m-1418 -48 c0 -5 -2 -10 -4 -10 -3 0 -8 5 -11 10 -3 6 -1
10 4 10 6 0 11 -4 11 -10z m1680 0 c0 -5 -5 -10 -11 -10 -5 0 -7 5 -4 10 3 6
8 10 11 10 2 0 4 -4 4 -10z m-50 -40 c-8 -5 -19 -10 -25 -10 -5 0 -3 5 5 10 8
5 20 10 25 10 6 0 3 -5 -5 -10z m-180 -82 c0 -10 -50 12 -70 29 -9 9 1 7 27
-4 24 -10 43 -21 43 -25z m-650 3 c0 -5 -9 -7 -20 -4 -11 3 -20 7 -20 9 0 2 9
4 20 4 11 0 20 -4 20 -9z m132 -37 c-2 -16 -5 -30 -6 -31 -3 -3 -64 16 -85 27
-8 3 -16 11 -18 17 -5 14 57 31 87 23 21 -5 24 -12 22 -36z m-392 -44 c0 -5
-4 -10 -10 -10 -5 0 -10 5 -10 10 0 6 5 10 10 10 6 0 10 -4 10 -10z m112 -42
c-6 -6 -16 -7 -22 -3 -9 6 -9 9 1 16 17 10 34 0 21 -13z m833 -268 c-3 -5 -12
-10 -20 -10 -8 0 -17 5 -20 10 -4 6 5 10 20 10 15 0 24 -4 20 -10z m-430 -80
c3 -5 1 -10 -4 -10 -6 0 -11 5 -11 10 0 6 2 10 4 10 3 0 8 -4 11 -10z"/>
<path d="M5768 3239 c-24 -14 -23 -49 0 -49 14 0 19 8 19 30 0 17 -1 30 -1 30
-1 0 -9 -5 -18 -11z"/>
<path d="M5740 3080 c0 -5 5 -10 10 -10 6 0 10 5 10 10 0 6 -4 10 -10 10 -5 0
-10 -4 -10 -10z"/>
<path d="M3288 2673 c6 -2 18 -2 25 0 6 3 1 5 -13 5 -14 0 -19 -2 -12 -5z"/>
<path d="M2240 7244 c0 -29 13 -31 40 -4 26 26 26 27 -10 28 -25 1 -30 -3 -30
-24z"/>
<path d="M2160 7251 c0 -6 -7 -11 -15 -11 -17 0 -20 -16 -5 -25 13 -8 52 14
47 28 -5 15 -27 21 -27 8z"/>
<path d="M1975 7220 c-3 -5 1 -10 9 -10 9 0 16 5 16 10 0 6 -4 10 -9 10 -6 0
-13 -4 -16 -10z"/>
<path d="M2665 7130 c3 -5 8 -10 11 -10 2 0 4 5 4 10 0 6 -5 10 -11 10 -5 0
-7 -4 -4 -10z"/>
<path d="M3435 6970 c-3 -5 1 -10 10 -10 9 0 13 5 10 10 -3 6 -8 10 -10 10 -2
0 -7 -4 -10 -10z"/>
<path d="M1504 6779 c-2 -4 3 -10 12 -13 24 -9 84 -7 84 3 0 10 -90 20 -96 10z"/>
<path d="M1720 6780 c0 -6 7 -10 15 -10 8 0 15 2 15 4 0 2 -7 6 -15 10 -8 3
-15 1 -15 -4z"/>
<path d="M2271 6541 c-19 -12 -4 -31 25 -31 17 0 24 5 24 20 0 21 -24 27 -49
11z"/>
<path d="M1830 6490 c0 -5 5 -10 10 -10 6 0 10 5 10 10 0 6 -4 10 -10 10 -5 0
-10 -4 -10 -10z"/>
<path d="M2153 6380 c-12 -10 -27 -28 -35 -38 -7 -10 -26 -25 -42 -33 -49 -24
-56 -45 -22 -74 28 -24 25 -32 -8 -19 -9 3 -16 12 -16 20 0 8 -7 14 -15 14 -9
0 -15 -9 -15 -25 0 -20 7 -26 43 -35 73 -19 97 -31 97 -51 0 -27 12 -24 45 11
16 17 33 30 38 30 4 0 15 6 22 14 12 11 10 22 -12 70 -15 31 -33 56 -40 56
-16 0 -17 32 -2 47 11 11 5 33 -10 33 -4 0 -17 -9 -28 -20z m-33 -170 c0 -5
-7 -10 -15 -10 -8 0 -15 5 -15 10 0 6 7 10 15 10 8 0 15 -4 15 -10z"/>
<path d="M2640 6368 c0 -17 2 -18 15 -8 8 7 15 14 15 15 0 2 -7 5 -15 9 -10 4
-15 -1 -15 -16z"/>
<path d="M1857 6293 c-2 -5 -7 -25 -11 -46 -7 -35 -5 -38 23 -48 20 -7 31 -18
31 -30 0 -10 2 -19 4 -19 2 0 11 -3 20 -6 12 -5 15 1 12 33 -2 21 1 44 7 51
14 17 1 28 -16 13 -25 -20 -47 -3 -40 30 4 22 2 29 -10 29 -9 0 -18 -3 -20 -7z"/>
<path d="M1517 6206 c-4 -10 -7 -25 -6 -34 0 -11 4 -9 10 7 5 13 8 29 6 35 -2
5 -6 2 -10 -8z"/>
<path d="M2320 6210 c0 -5 5 -10 11 -10 5 0 7 5 4 10 -3 6 -8 10 -11 10 -2 0
-4 -4 -4 -10z"/>
<path d="M1585 6170 c-3 -11 -11 -20 -16 -20 -5 0 -9 -4 -9 -10 0 -31 59 6 60
38 0 20 -28 14 -35 -8z"/>
<path d="M2231 6141 c-6 -10 -7 -21 -4 -25 9 -8 33 14 33 30 0 20 -18 17 -29
-5z"/>
<path d="M2399 6093 c-12 -14 -12 -16 0 -8 9 5 19 2 28 -10 16 -22 37 -8 27
18 -8 22 -38 22 -55 0z"/>
<path d="M2186 6043 c-3 -3 -6 -14 -6 -24 0 -23 38 -35 56 -17 12 12 10 16
-15 31 -15 9 -31 14 -35 10z"/>
<path d="M2340 6034 c0 -9 5 -14 12 -12 18 6 21 28 4 28 -9 0 -16 -7 -16 -16z"/>
<path d="M1575 6010 c-3 -5 -2 -10 4 -10 5 0 13 5 16 10 3 6 2 10 -4 10 -5 0
-13 -4 -16 -10z"/>
<path d="M2353 5923 c-27 -18 -30 -38 -7 -47 10 -4 13 -13 9 -26 -4 -11 -2
-20 4 -20 6 0 11 5 11 12 0 6 8 21 19 32 10 12 22 31 26 44 5 18 3 22 -17 21
-13 0 -33 -7 -45 -16z"/>
<path d="M1792 5905 c-19 -21 -25 -23 -54 -14 -18 6 -41 13 -50 16 -13 4 -18
0 -18 -17 0 -29 27 -55 43 -42 7 6 30 13 52 17 38 7 75 29 75 45 0 20 -30 16
-48 -5z"/>
<path d="M1625 5860 c3 -5 8 -10 11 -10 2 0 4 5 4 10 0 6 -5 10 -11 10 -5 0
-7 -4 -4 -10z"/>
<path d="M1943 5860 c-13 -5 -23 -6 -23 -3 0 15 -29 -33 -30 -49 0 -9 -8 -18
-17 -20 -15 -3 -15 -5 -2 -18 8 -8 19 -24 23 -35 l8 -20 9 20 c10 20 52 45 76
45 7 0 13 8 13 18 0 10 5 23 11 29 7 7 9 19 6 27 -7 17 -39 20 -74 6z"/>
<path d="M1753 5834 c-18 -9 -33 -20 -33 -25 0 -15 13 -10 45 16 35 29 32 31
-12 9z"/>
<path d="M2415 5720 c-3 -5 1 -10 9 -10 9 0 16 5 16 10 0 6 -4 10 -9 10 -6 0
-13 -4 -16 -10z"/>
<path d="M2367 5714 c-9 -10 2 -24 19 -24 8 0 14 7 14 15 0 15 -21 21 -33 9z"/>
<path d="M2465 5710 c-3 -5 -1 -10 4 -10 6 0 11 5 11 10 0 6 -2 10 -4 10 -3 0
-8 -4 -11 -10z"/>
<path d="M1702 5664 c4 -21 22 -23 26 -1 2 10 -3 17 -13 17 -10 0 -15 -6 -13
-16z"/>
<path d="M1870 5565 c6 -8 20 -17 31 -20 35 -11 20 -23 -18 -14 -38 8 -56 4
-38 -9 18 -13 17 -44 -2 -64 -18 -20 -18 -21 13 -16 25 3 30 1 29 -16 -1 -11
-7 -22 -13 -24 -27 -9 -9 -22 40 -28 38 -5 47 -9 33 -14 -11 -4 -25 -5 -31 -3
-6 2 -26 -10 -43 -28 l-32 -32 52 6 c29 4 57 11 63 17 5 5 18 10 28 10 10 0
18 5 18 10 0 6 -7 10 -16 10 -8 0 -12 5 -9 11 4 6 13 8 21 5 15 -6 18 3 8 28
-3 9 -11 13 -16 10 -6 -4 -8 -1 -6 7 3 8 11 13 17 12 40 -9 -54 117 -109 147
-27 14 -34 12 -20 -5z"/>
<path d="M2030 5410 c0 -5 5 -10 10 -10 6 0 10 5 10 10 0 6 -4 10 -10 10 -5 0
-10 -4 -10 -10z"/>
<path d="M2038 5283 c7 -3 16 -2 19 1 4 3 -2 6 -13 5 -11 0 -14 -3 -6 -6z"/>
<path d="M2746 5171 c-4 -6 5 -18 19 -27 29 -19 32 -39 9 -52 -15 -8 -15 -10
1 -16 11 -4 22 0 31 11 7 10 8 20 3 21 -5 2 -9 17 -9 33 0 16 -4 29 -9 29 -5
0 -16 3 -24 6 -8 3 -18 1 -21 -5z"/>
<path d="M2530 5150 c-12 -8 -11 -10 8 -10 12 0 22 5 22 10 0 13 -11 13 -30 0z"/>
<path d="M2098 5123 c7 -3 16 -2 19 1 4 3 -2 6 -13 5 -11 0 -14 -3 -6 -6z"/>
<path d="M131 4968 c0 -9 -4 -25 -7 -35 -5 -17 -5 -17 6 0 6 10 9 25 7 35 -4
15 -5 15 -6 0z"/>
<path d="M3138 4803 c6 -2 18 -2 25 0 6 3 1 5 -13 5 -14 0 -19 -2 -12 -5z"/>
<path d="M3038 4684 c-17 -16 -6 -25 22 -19 16 4 45 2 62 -4 20 -6 59 -6 98
-2 61 8 60 11 -7 16 -16 1 -59 5 -98 9 -38 5 -73 5 -77 0z"/>
<path d="M3305 4670 c-6 -10 1 -14 42 -23 32 -7 37 8 7 22 -31 14 -41 14 -49
1z"/>
<path d="M2517 4663 c-4 -3 -7 -11 -7 -17 0 -6 5 -5 12 2 6 6 9 14 7 17 -3 3
-9 2 -12 -2z"/>
<path d="M2732 4652 c-21 -14 31 -36 55 -24 11 6 31 9 44 7 13 -3 6 2 -16 9
-47 17 -65 19 -83 8z"/>
<path d="M3860 4450 c0 -5 7 -7 15 -4 8 4 15 8 15 10 0 2 -7 4 -15 4 -8 0 -15
-4 -15 -10z"/>
<path d="M3536 4271 c-18 -7 -18 -8 -2 -14 25 -10 66 -9 66 2 0 9 -25 22 -38
20 -4 0 -16 -4 -26 -8z"/>
<path d="M3620 4272 c-20 -7 -10 -43 15 -54 22 -10 28 -8 46 10 11 12 26 22
34 22 8 0 15 4 15 9 0 9 -90 19 -110 13z"/>
<path d="M3440 4260 c0 -13 40 -13 60 0 11 7 5 10 -22 10 -21 0 -38 -4 -38
-10z"/>
<path d="M3848 4193 c7 -3 16 -2 19 1 4 3 -2 6 -13 5 -11 0 -14 -3 -6 -6z"/>
<path d="M3 4080 c0 -25 2 -35 4 -22 2 12 2 32 0 45 -2 12 -4 2 -4 -23z"/>
<path d="M3 3840 c0 -30 2 -43 4 -27 2 15 2 39 0 55 -2 15 -4 2 -4 -28z"/>
<path d="M1860 3490 c0 -5 7 -10 16 -10 8 0 12 5 9 10 -3 6 -10 10 -16 10 -5
0 -9 -4 -9 -10z"/>
<path d="M1950 3490 c0 -5 4 -10 9 -10 6 0 13 5 16 10 3 6 -1 10 -9 10 -9 0
-16 -4 -16 -10z"/>
<path d="M2118 3433 c7 -3 16 -2 19 1 4 3 -2 6 -13 5 -11 0 -14 -3 -6 -6z"/>
<path d="M2050 3404 l-25 -15 25 5 c14 3 31 6 38 6 6 0 12 5 12 10 0 14 -21
12 -50 -6z"/>
<path d="M1688 3363 c7 -3 16 -2 19 1 4 3 -2 6 -13 5 -11 0 -14 -3 -6 -6z"/>
<path d="M536 3211 c4 -24 2 -41 -5 -45 -15 -10 -4 -26 18 -26 40 0 68 69 39
98 -7 7 -22 12 -35 12 -21 0 -23 -3 -17 -39z"/>
<path d="M1460 3090 c0 -11 7 -20 15 -20 17 0 18 2 9 24 -9 23 -24 20 -24 -4z"/>
<path d="M1532 3057 c-8 -9 -12 -26 -10 -39 l3 -23 13 23 c7 13 12 30 10 39
-3 15 -4 15 -16 0z"/>
<path d="M1377 3053 c-10 -15 4 -53 19 -53 17 0 17 8 0 39 -7 13 -16 19 -19
14z"/>
<path d="M110 3030 c0 -3 12 -43 25 -90 19 -63 24 -74 21 -43 -2 24 0 46 5 49
5 3 7 10 3 15 -3 5 0 18 8 27 12 15 11 16 -4 3 -16 -12 -18 -11 -18 3 0 10 -4
15 -9 11 -6 -3 -14 3 -20 12 -6 10 -10 16 -11 13z"/>
<path d="M1210 3020 c-12 -8 -11 -10 8 -10 12 0 22 5 22 10 0 13 -11 13 -30 0z"/>
<path d="M580 2965 c-16 -9 -19 -14 -9 -15 8 0 24 7 35 15 24 18 7 19 -26 0z"/>
<path d="M1193 2963 c-37 -4 -43 -7 -43 -27 0 -13 -7 -29 -15 -36 -19 -16 -19
-30 1 -30 8 0 13 4 9 9 -3 6 2 14 12 20 25 13 98 71 87 69 -5 -1 -28 -3 -51
-5z"/>
<path d="M967 2915 c-21 -24 -58 -55 -83 -67 -49 -24 -59 -41 -30 -46 10 -2
24 6 32 17 9 12 22 21 31 21 9 0 22 8 29 18 7 9 17 18 23 18 6 1 16 2 22 3 5
0 8 5 5 10 -4 5 -3 16 0 25 5 12 18 14 65 10 58 -4 70 1 48 23 -6 6 -25 7 -49
3 -21 -4 -43 -3 -47 1 -5 5 -26 -11 -46 -36z"/>
<path d="M2048 2953 c7 -3 16 -2 19 1 4 3 -2 6 -13 5 -11 0 -14 -3 -6 -6z"/>
<path d="M775 2792 c-3 -9 -1 -18 4 -20 6 -2 11 -11 12 -20 0 -14 2 -14 6 -2
4 8 13 20 22 27 18 13 13 22 -17 28 -12 2 -23 -3 -27 -13z"/>
<path d="M860 2760 c0 -5 5 -10 10 -10 6 0 10 5 10 10 0 6 -4 10 -10 10 -5 0
-10 -4 -10 -10z"/>
<path d="M920 2670 c0 -5 5 -10 11 -10 5 0 7 5 4 10 -3 6 -8 10 -11 10 -2 0
-4 -4 -4 -10z"/>
<path d="M1860 2056 c0 -9 -4 -16 -10 -16 -21 0 -8 -24 37 -66 25 -24 41 -44
35 -44 -25 0 -11 -19 19 -25 39 -9 49 2 38 40 -11 42 -66 82 -90 67 -13 -9
-19 -8 -23 4 -9 22 -8 24 10 24 17 0 14 22 -4 28 -7 2 -12 -3 -12 -12z"/>
<path d="M2110 2011 c-7 -15 -7 -21 0 -21 12 0 25 28 17 36 -3 3 -10 -4 -17
-15z"/>
<path d="M1517 1820 c-9 -11 -17 -25 -17 -30 0 -15 47 -12 47 3 0 6 4 20 8 30
10 24 -16 22 -38 -3z"/>
<path d="M1795 1824 c-33 -7 -68 -11 -77 -8 -28 8 -56 -12 -53 -40 10 -87 99
-129 172 -80 31 20 17 42 -15 25 -33 -17 -92 -14 -92 5 0 10 6 14 14 11 21 -8
44 22 26 33 -18 11 90 33 126 25 56 -13 64 -17 59 -26 -4 -5 17 -9 48 -9 53 0
56 -1 68 -32 7 -18 14 -36 17 -41 2 -4 -3 -4 -11 -1 -8 3 -18 1 -22 -5 -7 -12
-56 -15 -52 -3 1 4 -1 8 -5 10 -5 1 -8 -1 -9 -5 0 -5 -9 -12 -19 -18 -31 -16
-18 -27 38 -30 44 -3 54 0 67 18 l15 21 0 -20 c0 -18 8 -22 53 -28 45 -5 54
-3 69 15 26 31 13 77 -34 122 -23 24 -45 36 -54 33 -8 -3 -22 -2 -32 3 -54 29
-217 42 -297 25z m-49 -51 c11 -12 13 -18 5 -21 -13 -4 -41 16 -41 29 0 14 17
10 36 -8z m404 -83 c0 -5 -2 -10 -4 -10 -3 0 -8 5 -11 10 -3 6 -1 10 4 10 6 0
11 -4 11 -10z"/>
<path d="M2507 1813 c-4 -3 -7 -11 -7 -17 0 -6 5 -5 12 2 6 6 9 14 7 17 -3 3
-9 2 -12 -2z"/>
<path d="M1597 1804 c-9 -10 -9 -54 1 -54 4 0 15 -14 25 -32 12 -21 21 -28 28
-21 7 7 7 17 1 29 -5 11 -14 32 -18 48 -9 30 -25 42 -37 30z"/>
<path d="M1363 1783 c-7 -3 -13 -15 -13 -28 0 -23 1 -23 30 -9 17 9 30 17 30
19 0 9 -36 22 -47 18z"/>
<path d="M1941 1732 c-15 -28 -14 -32 9 -32 21 0 26 16 11 39 -7 11 -11 10
-20 -7z"/>
<path d="M1520 1678 c0 -32 15 -45 24 -21 4 9 0 23 -9 32 -13 14 -15 13 -15
-11z"/>
<path d="M1713 1643 c36 -35 50 -44 59 -35 15 15 -14 49 -61 68 -50 21 -50 18
2 -33z"/>
<path d="M1310 1655 c1 -17 29 -49 37 -41 4 3 -3 16 -15 29 -12 12 -22 17 -22
12z"/>
<path d="M1502 1640 c14 -22 24 -19 15 5 -4 8 -11 15 -17 15 -6 0 -6 -7 2 -20z"/>
<path d="M780 1596 c0 -2 8 -10 18 -17 15 -13 16 -12 3 4 -13 16 -21 21 -21
13z"/>
<path d="M1562 1580 c7 -11 21 -23 30 -26 9 -3 33 -26 52 -52 19 -26 44 -56
55 -66 13 -12 19 -26 15 -38 -6 -19 20 -26 31 -8 3 6 15 10 27 10 17 0 20 -4
15 -30 -6 -28 -4 -30 21 -30 15 0 35 7 45 15 18 13 18 15 -5 47 -12 18 -24 34
-25 36 0 2 -7 5 -15 6 -33 6 -88 28 -88 37 0 5 -6 9 -13 9 -7 0 -28 16 -47 35
-19 19 -39 35 -45 35 -7 0 -20 9 -30 20 -23 26 -39 26 -23 0z"/>
<path d="M1066 1505 c4 -9 0 -15 -10 -15 -19 0 -21 -16 -3 -23 7 -2 22 3 34
13 16 13 19 20 10 29 -16 16 -37 14 -31 -4z"/>
<path d="M1379 1493 c-6 -37 17 -73 46 -73 9 0 30 -8 46 -17 15 -9 31 -14 35
-11 8 9 -53 68 -71 68 -7 0 -17 9 -20 20 -6 19 -34 29 -36 13z"/>
<path d="M1250 1456 c0 -9 5 -16 10 -16 6 0 10 4 10 9 0 6 -4 13 -10 16 -5 3
-10 -1 -10 -9z"/>
<path d="M1566 1391 c-8 -12 -3 -14 36 -11 15 1 39 -6 53 -16 23 -15 28 -15
36 -3 15 24 10 29 -33 29 -24 0 -53 3 -64 6 -12 3 -25 1 -28 -5z"/>
<path d="M1240 1345 c0 -8 5 -15 10 -15 6 0 10 7 10 15 0 8 -4 15 -10 15 -5 0
-10 -7 -10 -15z"/>
<path d="M1613 1325 c13 -27 33 -35 23 -9 -3 9 -6 20 -6 25 0 5 -6 9 -14 9
-11 0 -12 -5 -3 -25z"/>
<path d="M1390 1331 c0 -5 5 -13 10 -16 6 -3 10 -2 10 4 0 5 -4 13 -10 16 -5
3 -10 2 -10 -4z"/>
<path d="M1486 1263 c-7 -17 18 -52 29 -41 8 8 -5 58 -15 58 -4 0 -11 -8 -14
-17z"/>
<path d="M1667 1273 c-16 -15 -5 -30 23 -31 27 -1 29 1 20 19 -11 19 -31 25
-43 12z"/>
<path d="M1641 1208 c13 -18 25 -26 27 -19 4 13 -25 51 -40 51 -5 0 1 -14 13
-32z"/>
<path d="M1585 1154 c62 -61 80 -64 51 -9 -11 19 -32 37 -54 46 -20 7 -41 16
-47 18 -5 2 17 -23 50 -55z"/>
</g>
</svg>
