<svg xmlns="http://www.w3.org/2000/svg" width="16px" height="16px" viewBox="0 0 2048 2048">
    <circle fill-opacity="0.6" r="1024" cx="1024" cy="1024" fill="#75b0a4"/>
    <g transform="scale(0.45)">
        <path fill-opacity="1" transform="translate(0, 3000) rotate(180) scale(-1, 1)"
              fill="#231f20" d="M137 1493h203v-572h553v572h203v-1493h-203v751h-553v-751h-203v1493z"/>
        <path fill-opacity="1" transform="translate(1100, 3000) rotate(180) scale(-1, 1)" fill="#231f20"
              d="M197 1493h886v-170h-684v-402h654v-170h-654v-581h703v-170h-905v1493z"/>
        <path fill-opacity="1" transform="translate(2200, 3000) rotate(180) scale(-1, 1)"
              fill="#231f20"
              d="M616 1315l-213 -764h426zM494 1493h245l457 -1493h-209l-110 389h-523l-108 -389h-209z"/>
        <path fill-opacity="1" transform="translate(3400, 3000) rotate(180) scale(-1, 1)"
              fill="#231f20"
              d="M436 166q255 0 356 125.5t101 453.5q0 331 -100.5 456.5t-356.5 125.5h-96v-1161h96zM440 1493q342 0 504 -182t162 -566q0 -382 -162 -563.5t-504 -181.5h-303v1493h303z"/>
    </g>
</svg>