<svg xmlns="http://www.w3.org/2000/svg" width="16px" height="16px" viewBox="0 0 2048 2048">
    <circle fill-opacity="0.6" r="1024" cx="1024" cy="1024" fill="#c69c6d"/>
    <g transform="scale(0.32)">
        <path fill-opacity="1" transform="translate(100, 3900) rotate(180) scale(-1, 1)"
              fill="#231f20"
              d="M399 1327v-561h234q140 0 218.5 74t78.5 207t-78 206.5t-219 73.5h-234zM197 1493h436q250 0 379 -113.5t129 -332.5q0 -221 -128.5 -334t-379.5 -113h-234v-600h-202v1493z"/>
        <path fill-opacity="1" transform="translate(1200, 3900) rotate(180) scale(-1, 1)" fill="#231f20"
              d="M616 1315l-213 -764h426zM494 1493h245l457 -1493h-209l-110 389h-523l-108 -389h-209z"/>
        <path fill-opacity="1" transform="translate(2388.2799999999997, 3900) rotate(180) scale(-1, 1)"
              fill="#231f20" d="M47 1493h1139v-170h-467v-1323h-203v1323h-469v170z"/>
        <path fill-opacity="1" transform="translate(3621.2799999999997, 3900) rotate(180) scale(-1, 1)"
              fill="#231f20"
              d="M1073 53q-77 -41 -158 -61.5t-172 -20.5q-287 0 -445.5 203t-158.5 571q0 366 159.5 570.5t444.5 204.5q91 0 172 -20.5t158 -61.5v-207q-74 61 -159 93t-171 32q-197 0 -295 -152t-98 -459q0 -306 98 -458t295 -152q88 0 172.5 32t157.5 93v-207z"/>
        <path fill-opacity="1" transform="translate(4900, 3900) rotate(180) scale(-1, 1)" fill="#231f20"
              d="M137 1493h203v-572h553v572h203v-1493h-203v751h-553v-751h-203v1493z"/>
    </g>
</svg>