<svg xmlns="http://www.w3.org/2000/svg" width="16px" height="16px" viewBox="0 0 2048 2048">
    <circle fill-opacity="0.6" r="1024" cx="1024" cy="1024" fill="#0071BC"/>
    <g transform="scale(0.45)">
        <path fill-opacity="1" transform="translate(0, 3000) rotate(180) scale(-1, 1)"
              fill="#231f20"
              d="M399 1327v-561h234q140 0 218.5 74t78.5 207t-78 206.5t-219 73.5h-234zM197 1493h436q250 0 379 -113.5t129 -332.5q0 -221 -128.5 -334t-379.5 -113h-234v-600h-202v1493z"/>
        <path fill-opacity="1" transform="translate(1100, 3000) rotate(180) scale(-1, 1)" fill="#231f20"
              d="M905 745q0 329 -67.5 470t-221.5 141q-153 0 -220.5 -141t-67.5 -470q0 -328 67.5 -469t220.5 -141q154 0 221.5 140.5t67.5 469.5zM1116 745q0 -390 -123.5 -582t-376.5 -192t-376 191t-123 583q0 391 123.5 583t375.5 192q253 0 376.5 -192t123.5 -583z"/>
        <path fill-opacity="1" transform="translate(2200, 3000) rotate(180) scale(-1, 1)" fill="#231f20"
              d="M1012 1442v-205q-92 59 -184.5 89t-186.5 30q-143 0 -226 -66.5t-83 -179.5q0 -99 54.5 -151t203.5 -87l106 -24q210 -49 306 -154t96 -286q0 -213 -132 -325t-384 -112q-105 0 -211 22.5t-213 67.5v215q115 -73 217.5 -107t206.5 -34q153 0 238 68.5t85 191.5 q0 112 -58.5 171t-203.5 91l-108 25q-208 47 -302 142t-94 255q0 200 134.5 320.5t357.5 120.5q86 0 181 -19.5t200 -58.5z"/>
        <path fill-opacity="1" transform="translate(3300, 3000) rotate(180) scale(-1, 1)" fill="#231f20"
              d="M47 1493h1139v-170h-467v-1323h-203v1323h-469v170z"/>
    </g>
</svg>